<svg width="12" height="12" viewBox="0 0 12 12" fill="none" xmlns="http://www.w3.org/2000/svg">
<g clip-path="url(#clip0_4057_13)">
<path d="M10.2427 1.75737C9.10941 0.624117 7.60266 0 6 0C4.39734 0 2.89062 0.624094 1.75734 1.75734C0.624117 2.89062 0 4.39734 0 6C0 7.60266 0.624117 9.10941 1.75734 10.2427C2.89062 11.3759 4.39734 12 6 12C7.60266 12 9.10938 11.3759 10.2426 10.2427C11.3759 9.10938 12 7.60266 12 6C12 4.39734 11.3759 2.89062 10.2427 1.75737ZM6 11.2969C3.07929 11.2969 0.703125 8.92071 0.703125 6C0.703125 3.07929 3.07929 0.703125 6 0.703125C8.92071 0.703125 11.2969 3.07929 11.2969 6C11.2969 8.92071 8.92071 11.2969 6 11.2969Z" fill="white"/>
<path d="M8.71433 6.80759C8.53639 6.7298 8.32916 6.81103 8.25141 6.98897C7.85759 7.89028 6.96772 8.47266 5.98435 8.47266C4.62092 8.47266 3.5117 7.36343 3.5117 6C3.5117 4.63657 4.62092 3.52734 5.98435 3.52734C6.96205 3.52734 7.84986 4.10505 8.24612 4.99913C8.3248 5.17664 8.53245 5.25682 8.70997 5.17809C8.88748 5.09944 8.96762 4.89176 8.88894 4.71424C8.38009 3.56609 7.23997 2.82422 5.98438 2.82422C4.23324 2.82422 2.80859 4.24887 2.80859 6C2.80859 7.75113 4.23324 9.17578 5.98438 9.17578C7.24721 9.17578 8.39 8.42791 8.89573 7.2705C8.97348 7.09259 8.89227 6.88533 8.71433 6.80759Z" fill="white"/>
</g>
<defs>
<clipPath id="clip0_4057_13">
<rect width="12" height="12" fill="white"/>
</clipPath>
</defs>
</svg>
