<svg width="196" height="44" viewBox="0 0 196 44" fill="none" xmlns="http://www.w3.org/2000/svg">
<g clip-path="url(#clip0_11802_2)">
<path d="M6.83333 25H10.9333V8.66074H17.3719V4.95556H0.425185V8.66074H6.83333V25ZM43.884 4.95556L39.4196 16.7393L34.1655 4.59111H32.7988L27.5447 16.8L23.0803 4.95556H18.5247L26.5425 25.3644H27.8788L33.4973 12.7911L39.0855 25.3644H40.4218L48.4396 4.95556H43.884ZM49.7645 14.9778C49.6733 20.7178 54.6237 25.4859 60.3941 25.3644C66.1645 25.4859 71.1756 20.7178 71.0845 14.9778C71.1756 9.23778 66.1645 4.46963 60.3941 4.59111C54.6237 4.46963 49.6733 9.23778 49.7645 14.9778ZM66.863 14.9778C66.863 18.8348 64.0993 21.5681 60.4245 21.5681C56.7193 21.5681 53.9859 18.8348 53.9859 14.9778C53.9859 11.1207 56.7193 8.38741 60.4245 8.38741C64.0993 8.38741 66.863 11.1815 66.863 14.9778ZM72.7266 22.54C72.7266 24.1496 73.9718 25.3644 75.5814 25.3644C77.191 25.3644 78.3755 24.1496 78.3755 22.54C78.3755 20.9607 77.1607 19.7156 75.5814 19.7156C73.9718 19.7156 72.7266 20.9607 72.7266 22.54Z" fill="#000239"/>
<path d="M96.4845 25H99.0053L90.3193 4.62148H89.4386L80.7527 25H83.243L84.9438 20.9304H94.7838L96.4845 25ZM93.8727 18.8044H85.8549L89.8638 8.93407L93.8727 18.8044ZM100.933 14.9778C100.811 20.7178 105.67 25.4252 111.35 25.3341C114.903 25.3341 118.001 23.6637 119.671 21.0215L117.91 19.6244C116.361 21.8415 114.144 23.1474 111.38 23.1474C106.855 23.1474 103.393 19.6244 103.393 14.9778C103.393 10.3311 106.855 6.80815 111.38 6.80815C114.144 6.80815 116.361 8.11407 117.91 10.3311L119.671 8.93407C117.97 6.29185 114.903 4.62148 111.35 4.62148C105.67 4.53037 100.811 9.23778 100.933 14.9778ZM128.808 25H131.177V7.08148H138.253V4.95556H121.762V7.08148H128.808V25ZM141.595 25H143.964V4.95556H141.595V25ZM189.516 4.95556V20.0193L176.761 4.62148H175.91V25H178.279V9.96667L191.035 25.3341H191.885V4.95556H189.516Z" fill="#0085E5"/>
<path d="M49.475 38.3335H52.1112C53.5249 38.3335 54.471 37.4619 54.471 36.2182C54.471 34.9852 53.5249 34.1242 52.1112 34.1242H50.6018V32.3278H53.897V31.3179H49.475V38.3335ZM50.6018 37.3449V35.0915H52.0687C52.8659 35.0915 53.3336 35.5379 53.3336 36.2182C53.3336 36.8985 52.8659 37.3449 52.0687 37.3449H50.6018ZM60.0815 32.9974L57.0308 36.3776V33.1143H55.904V38.4504H56.2973L59.3374 35.0915V38.3335H60.4642V32.9974H60.0815ZM67.7243 35.7186C67.7243 34.1773 66.6401 32.9974 65.1625 32.9974C64.3972 32.9974 63.7275 33.3057 63.3449 33.8478V33.1143H62.3032V40.2468H63.4193V37.6957C63.8338 38.1741 64.4504 38.4504 65.1625 38.4504C66.6401 38.4504 67.7243 37.2812 67.7243 35.7186ZM66.5763 35.7292C66.5763 36.7284 65.8747 37.43 64.9818 37.43C64.1634 37.43 63.4086 36.8666 63.4086 35.7186C63.4086 34.5812 64.1634 34.0179 64.9818 34.0179C65.8854 34.0179 66.5763 34.7301 66.5763 35.7292ZM68.5663 33.1143L70.5965 35.5379L68.4068 38.3335H69.7143L71.9146 35.5379L69.9162 33.1143H68.5663ZM71.9571 38.3335H73.0732V33.1143H71.9571V38.3335ZM74.4444 35.506L76.4534 33.1143H75.1141L73.1051 35.5379L75.3054 38.3335H76.666L74.4444 35.506ZM81.936 35.1765C81.936 33.7734 81.0856 32.9974 79.7995 32.9974C78.8959 32.9974 78.12 33.3588 77.5991 34.1135L78.2475 34.7726C78.6833 34.2517 79.1085 33.9966 79.6932 33.9966C80.4053 33.9966 80.8093 34.3899 80.8093 35.1127V35.4529H79.3318C78.1519 35.4529 77.4078 36.0375 77.4078 36.941C77.4078 37.8445 78.1306 38.4504 79.2255 38.4504C79.9376 38.4504 80.5116 38.2059 80.8943 37.7489V38.3335H81.936V35.1765ZM80.8093 36.3564C80.8093 37.0686 80.214 37.5894 79.4593 37.5894C78.9172 37.5894 78.5452 37.3343 78.5452 36.8985C78.5452 36.4733 78.8747 36.2607 79.4699 36.2607H80.8093V36.3564ZM86.6174 35.7399C86.6174 37.2386 87.8291 38.4504 89.3279 38.4504C90.2314 38.4504 90.9861 38.0146 91.4538 37.3237L90.8692 36.8666C90.4547 37.4193 89.9444 37.6957 89.3386 37.6957C88.265 37.6957 87.4571 36.8241 87.4571 35.7399C87.4571 34.6663 88.265 33.7946 89.3386 33.7946C89.9444 33.7946 90.4653 34.071 90.8798 34.6344L91.4645 34.1667C90.9968 33.4758 90.2314 33.0399 89.3279 33.0399C87.8504 33.0187 86.5855 34.2623 86.6174 35.7399ZM92.5808 35.7399C92.5595 37.1961 93.8032 38.4717 95.2807 38.4398C96.7582 38.4717 98.0338 37.1961 98.0019 35.7399C98.0338 34.2623 96.7688 33.0187 95.2913 33.0399C93.8138 33.0081 92.5489 34.2623 92.5808 35.7399ZM97.1621 35.7505C97.1621 36.8347 96.333 37.6851 95.2807 37.6851C94.2283 37.6851 93.4205 36.8347 93.4205 35.7505C93.4205 34.6344 94.2283 33.7946 95.2913 33.7946C96.3436 33.7946 97.1621 34.6344 97.1621 35.7505ZM99.2812 35.7399C99.2599 37.1961 100.504 38.4717 101.981 38.4398C103.459 38.4717 104.734 37.1961 104.702 35.7399C104.734 34.2623 103.469 33.0187 101.992 33.0399C100.514 33.0081 99.2493 34.2623 99.2812 35.7399ZM103.863 35.7505C103.863 36.8347 103.033 37.6851 101.981 37.6851C100.929 37.6851 100.121 36.8347 100.121 35.7505C100.121 34.6344 100.929 33.7946 101.992 33.7946C103.044 33.7946 103.863 34.6344 103.863 35.7505ZM111.456 35.8355C111.488 34.4431 110.265 33.1994 108.873 33.2313C108.065 33.2313 107.321 33.6246 106.885 34.273C106.885 33.7202 106.938 33.2632 107.034 32.9124C107.13 32.551 107.363 32.2427 107.725 31.977C108.086 31.7112 108.639 31.5199 109.372 31.4136C110.148 31.2967 110.69 31.1691 111.02 31.0309V30.2443C110.733 30.3613 110.159 30.4995 109.277 30.6589C107.523 30.9565 106.651 31.6475 106.322 32.6679C106.162 33.1781 106.088 33.8265 106.088 34.6238V35.5273C106.088 37.2493 107.172 38.4398 108.756 38.4398C110.233 38.4717 111.477 37.2493 111.456 35.8355ZM110.616 35.8355C110.616 36.8666 109.798 37.6851 108.767 37.6851C107.757 37.6851 106.917 36.8453 106.917 35.8355C106.917 34.8045 107.757 33.986 108.767 33.986C109.798 33.986 110.616 34.8045 110.616 35.8355ZM119.93 39.8323H120.749V37.6107H119.909V33.1569H119.09V37.6107H116.911V33.1569H116.093V37.6107H113.924V33.1569H113.106V38.3335H119.93V39.8323ZM126.713 35.995C126.755 35.7824 126.776 35.5804 126.776 35.3785C126.776 34.0072 125.756 33.0399 124.417 33.0399C122.939 33.0399 121.77 34.2517 121.77 35.7505C121.77 37.2705 122.971 38.4504 124.512 38.4504C125.331 38.4504 126.043 38.1103 126.585 37.5469L126.107 36.9942C125.639 37.4619 125.108 37.6957 124.523 37.6957C123.503 37.6957 122.716 37.0154 122.62 35.995H126.713ZM122.652 35.2722C122.833 34.3793 123.534 33.784 124.395 33.784C125.256 33.784 125.926 34.3474 125.937 35.2722H122.652ZM128.055 35.7399C128.055 37.2386 129.267 38.4504 130.766 38.4504C131.669 38.4504 132.424 38.0146 132.892 37.3237L132.307 36.8666C131.892 37.4193 131.382 37.6957 130.776 37.6957C129.703 37.6957 128.895 36.8241 128.895 35.7399C128.895 34.6663 129.703 33.7946 130.776 33.7946C131.382 33.7946 131.903 34.071 132.318 34.6344L132.902 34.1667C132.434 33.4758 131.669 33.0399 130.766 33.0399C129.288 33.0187 128.023 34.2623 128.055 35.7399ZM135.547 38.3335H136.354V33.8903H138.098V33.1569H133.803V33.8903H135.547V38.3335ZM143.682 36.7709C143.682 36.1757 143.31 35.7399 142.704 35.5273C143.044 35.3041 143.246 34.9426 143.246 34.5281C143.246 33.6883 142.597 33.1569 141.577 33.1569H139.44V38.3335H141.843C142.959 38.3335 143.682 37.6957 143.682 36.7709ZM140.259 33.8903H141.588C142.151 33.8903 142.438 34.1135 142.438 34.5706C142.438 35.0064 142.151 35.2722 141.588 35.2722H140.259V33.8903ZM142.863 36.7709C142.863 37.2705 142.47 37.6107 141.79 37.6107H140.259V35.995H141.79C142.47 35.995 142.863 36.2926 142.863 36.7709Z" fill="#0085E5"/>
<rect x="148" y="44" width="42" height="24" rx="12" transform="rotate(-90 148 44)" fill="#0085E5" fill-opacity="0.2"/>
<g filter="url(#filter0_d_11802_2)">
<circle cx="160" cy="14" r="9" fill="white"/>
</g>
</g>
<defs>
<filter id="filter0_d_11802_2" x="29.5185" y="-75.4815" width="260.963" height="260.963" filterUnits="userSpaceOnUse" color-interpolation-filters="sRGB">
<feFlood flood-opacity="0" result="BackgroundImageFix"/>
<feColorMatrix in="SourceAlpha" type="matrix" values="0 0 0 0 0 0 0 0 0 0 0 0 0 0 0 0 0 0 127 0" result="hardAlpha"/>
<feOffset dy="41"/>
<feGaussianBlur stdDeviation="60.7407"/>
<feColorMatrix type="matrix" values="0 0 0 0 0 0 0 0 0 0 0 0 0 0 0 0 0 0 0.26 0"/>
<feBlend mode="normal" in2="BackgroundImageFix" result="effect1_dropShadow_11802_2"/>
<feBlend mode="normal" in="SourceGraphic" in2="effect1_dropShadow_11802_2" result="shape"/>
</filter>
<clipPath id="clip0_11802_2">
<rect width="195.889" height="44" fill="white"/>
</clipPath>
</defs>
</svg>
