<svg width="181" height="136" viewBox="0 0 181 136" fill="none" xmlns="http://www.w3.org/2000/svg">
<path d="M4.25581 35H6.8093V24.8239H10.8192V22.5163H0.264806V24.8239H4.25581V35ZM27.331 22.5163L24.5506 29.8552L21.2783 22.2893H20.4272L17.1549 29.893L14.3745 22.5163H11.5372L16.5307 35.227H17.363L20.8622 27.3963L24.3425 35.227H25.1748L30.1683 22.5163H27.331ZM30.9934 28.7581C30.9367 32.333 34.0198 35.3026 37.6136 35.227C41.2074 35.3026 44.3283 32.333 44.2715 28.7581C44.3283 25.1833 41.2074 22.2136 37.6136 22.2893C34.0198 22.2136 30.9367 25.1833 30.9934 28.7581ZM41.6424 28.7581C41.6424 31.1603 39.9212 32.8626 37.6325 32.8626C35.3249 32.8626 33.6226 31.1603 33.6226 28.7581C33.6226 26.356 35.3249 24.6536 37.6325 24.6536C39.9212 24.6536 41.6424 26.3938 41.6424 28.7581ZM45.2943 33.4679C45.2943 34.4704 46.0698 35.227 47.0723 35.227C48.0747 35.227 48.8124 34.4704 48.8124 33.4679C48.8124 32.4843 48.0558 31.7088 47.0723 31.7088C46.0698 31.7088 45.2943 32.4843 45.2943 33.4679Z" fill="#000239"/>
<path d="M60.0908 35H61.6607L56.2511 22.3082H55.7025L50.2929 35H51.8439L52.9032 32.4654H59.0315L60.0908 35ZM58.4641 31.1414H53.4706L55.9673 24.9941L58.4641 31.1414ZM62.861 28.7581C62.7854 32.333 65.8117 35.2648 69.3488 35.2081C71.5618 35.2081 73.4911 34.1678 74.5314 32.5222L73.4344 31.6521C72.4697 33.0329 71.0889 33.8462 69.3677 33.8462C66.5494 33.8462 64.3931 31.6521 64.3931 28.7581C64.3931 25.8642 66.5494 23.6701 69.3677 23.6701C71.0889 23.6701 72.4697 24.4834 73.4344 25.8642L74.5314 24.9941C73.4722 23.3485 71.5618 22.3082 69.3488 22.3082C65.8117 22.2515 62.7854 25.1833 62.861 28.7581ZM80.2218 35H81.6971V23.8403H86.1043V22.5163H75.8336V23.8403H80.2218V35ZM88.1859 35H89.6613V22.5163H88.1859V35ZM118.031 22.5163V31.898L110.087 22.3082H109.557V35H111.033V25.6372L118.977 35.2081H119.507V22.5163H118.031Z" fill="#0085E5"/>
<path d="M30.8131 44.269H32.4549C33.3354 44.269 33.9246 43.7261 33.9246 42.9516C33.9246 42.1836 33.3354 41.6474 32.4549 41.6474H31.5149V40.5286H33.5671V39.8997H30.8131V44.269ZM31.5149 43.6533V42.2498H32.4285C32.925 42.2498 33.2163 42.5279 33.2163 42.9516C33.2163 43.3752 32.925 43.6533 32.4285 43.6533H31.5149ZM37.4189 40.9456L35.5189 43.0509V41.0185H34.8171V44.3418H35.0621L36.9555 42.2498V44.269H37.6572V40.9456H37.4189ZM42.1788 42.6404C42.1788 41.6805 41.5036 40.9456 40.5834 40.9456C40.1067 40.9456 39.6896 41.1376 39.4513 41.4753V41.0185H38.8025V45.4606H39.4977V43.8718C39.7558 44.1697 40.1398 44.3418 40.5834 44.3418C41.5036 44.3418 42.1788 43.6136 42.1788 42.6404ZM41.4638 42.647C41.4638 43.2693 41.0269 43.7063 40.4708 43.7063C39.9611 43.7063 39.491 43.3554 39.491 42.6404C39.491 41.9321 39.9611 41.5812 40.4708 41.5812C41.0335 41.5812 41.4638 42.0247 41.4638 42.647ZM42.7032 41.0185L43.9677 42.5279L42.6039 44.269H43.4182L44.7886 42.5279L43.544 41.0185H42.7032ZM44.815 44.269H45.5101V41.0185H44.815V44.269ZM46.3641 42.508L47.6154 41.0185H46.7812L45.53 42.5279L46.9004 44.269H47.7478L46.3641 42.508ZM51.0299 42.3028C51.0299 41.4289 50.5003 40.9456 49.6993 40.9456C49.1365 40.9456 48.6533 41.1707 48.3289 41.6408L48.7327 42.0512C49.0041 41.7268 49.2689 41.5679 49.6331 41.5679C50.0766 41.5679 50.3282 41.8129 50.3282 42.2631V42.4749H49.408C48.6731 42.4749 48.2097 42.839 48.2097 43.4017C48.2097 43.9644 48.6599 44.3418 49.3418 44.3418C49.7853 44.3418 50.1428 44.1895 50.3811 43.9049V44.269H51.0299V42.3028ZM50.3282 43.0376C50.3282 43.4812 49.9574 43.8056 49.4874 43.8056C49.1498 43.8056 48.9181 43.6467 48.9181 43.3752C48.9181 43.1104 49.1233 42.978 49.494 42.978H50.3282V43.0376ZM53.9455 42.6536C53.9455 43.5871 54.7002 44.3418 55.6336 44.3418C56.1963 44.3418 56.6664 44.0704 56.9576 43.6401L56.5935 43.3554C56.3353 43.6996 56.0176 43.8718 55.6402 43.8718C54.9716 43.8718 54.4685 43.3289 54.4685 42.6536C54.4685 41.985 54.9716 41.4422 55.6402 41.4422C56.0176 41.4422 56.342 41.6143 56.6002 41.9652L56.9643 41.6739C56.673 41.2436 56.1963 40.9721 55.6336 40.9721C54.7134 40.9589 53.9256 41.7334 53.9455 42.6536ZM57.6595 42.6536C57.6462 43.5606 58.4208 44.355 59.341 44.3352C60.2612 44.355 61.0556 43.5606 61.0358 42.6536C61.0556 41.7334 60.2678 40.9589 59.3476 40.9721C58.4274 40.9523 57.6396 41.7334 57.6595 42.6536ZM60.5128 42.6603C60.5128 43.3355 59.9964 43.8651 59.341 43.8651C58.6856 43.8651 58.1825 43.3355 58.1825 42.6603C58.1825 41.9652 58.6856 41.4422 59.3476 41.4422C60.003 41.4422 60.5128 41.9652 60.5128 42.6603ZM61.8325 42.6536C61.8193 43.5606 62.5938 44.355 63.514 44.3352C64.4342 44.355 65.2286 43.5606 65.2088 42.6536C65.2286 41.7334 64.4408 40.9589 63.5206 40.9721C62.6004 40.9523 61.8126 41.7334 61.8325 42.6536ZM64.6858 42.6603C64.6858 43.3355 64.1694 43.8651 63.514 43.8651C62.8586 43.8651 62.3555 43.3355 62.3555 42.6603C62.3555 41.9652 62.8586 41.4422 63.5206 41.4422C64.176 41.4422 64.6858 41.9652 64.6858 42.6603ZM69.4149 42.7132C69.4348 41.846 68.6735 41.0714 67.8062 41.0913C67.3031 41.0913 66.8397 41.3362 66.5682 41.7401C66.5682 41.3958 66.6013 41.1112 66.6609 40.8927C66.7205 40.6676 66.8662 40.4756 67.0912 40.3101C67.3163 40.1446 67.6606 40.0254 68.1174 39.9592C68.6006 39.8864 68.9383 39.807 69.1435 39.7209V39.231C68.9647 39.3038 68.6073 39.3899 68.0578 39.4892C66.9655 39.6746 66.4226 40.1049 66.2174 40.7404C66.1181 41.0582 66.0717 41.462 66.0717 41.9585V42.5212C66.0717 43.5937 66.747 44.3352 67.7334 44.3352C68.6536 44.355 69.4282 43.5937 69.4149 42.7132ZM68.8919 42.7132C68.8919 43.3554 68.3822 43.8651 67.74 43.8651C67.1111 43.8651 66.5881 43.3421 66.5881 42.7132C66.5881 42.0711 67.1111 41.5613 67.74 41.5613C68.3822 41.5613 68.8919 42.0711 68.8919 42.7132ZM74.6927 45.2024H75.2025V43.8188H74.6795V41.045H74.1697V43.8188H72.8126V41.045H72.3028V43.8188H70.9523V41.045H70.4426V44.269H74.6927V45.2024ZM78.9169 42.8125C78.9434 42.6801 78.9566 42.5543 78.9566 42.4286C78.9566 41.5746 78.3211 40.9721 77.4869 40.9721C76.5667 40.9721 75.8385 41.7268 75.8385 42.6603C75.8385 43.607 76.5866 44.3418 77.5465 44.3418C78.0563 44.3418 78.4998 44.1299 78.8375 43.7791L78.5396 43.4348C78.2483 43.7261 77.9173 43.8718 77.5531 43.8718C76.9176 43.8718 76.4277 43.4481 76.3681 42.8125H78.9169ZM76.388 42.3624C76.5005 41.8063 76.9375 41.4355 77.4737 41.4355C78.0099 41.4355 78.427 41.7864 78.4336 42.3624H76.388ZM79.753 42.6536C79.753 43.5871 80.5076 44.3418 81.4411 44.3418C82.0038 44.3418 82.4738 44.0704 82.7651 43.6401L82.401 43.3554C82.1428 43.6996 81.8251 43.8718 81.4477 43.8718C80.7791 43.8718 80.2759 43.3289 80.2759 42.6536C80.2759 41.985 80.7791 41.4422 81.4477 41.4422C81.8251 41.4422 82.1494 41.6143 82.4076 41.9652L82.7717 41.6739C82.4805 41.2436 82.0038 40.9721 81.4411 40.9721C80.5209 40.9589 79.7331 41.7334 79.753 42.6536ZM84.4187 44.269H84.9218V41.5017H86.0076V41.045H83.333V41.5017H84.4187V44.269ZM89.4852 43.2958C89.4852 42.9251 89.2535 42.6536 88.8761 42.5212C89.088 42.3822 89.2138 42.1571 89.2138 41.899C89.2138 41.376 88.8099 41.045 88.1744 41.045H86.8438V44.269H88.3399C89.035 44.269 89.4852 43.8718 89.4852 43.2958ZM87.3535 41.5017H88.181C88.5319 41.5017 88.7106 41.6408 88.7106 41.9254C88.7106 42.1969 88.5319 42.3624 88.181 42.3624H87.3535V41.5017ZM88.9755 43.2958C88.9755 43.607 88.7305 43.8188 88.3068 43.8188H87.3535V42.8125H88.3068C88.7305 42.8125 88.9755 42.9979 88.9755 43.2958Z" fill="#0085E5"/>
<rect x="92.1738" y="47.4033" width="26.1577" height="14.9472" rx="7.47362" transform="rotate(-90 92.1738 47.4033)" fill="#0085E5" fill-opacity="0.2"/>
<g filter="url(#filter0_d_4460_454)">
<circle cx="99.6482" cy="28.7192" r="5.60522" fill="white"/>
</g>
<defs>
<filter id="filter0_d_4460_454" x="18.3841" y="-27.01" width="162.529" height="162.528" filterUnits="userSpaceOnUse" color-interpolation-filters="sRGB">
<feFlood flood-opacity="0" result="BackgroundImageFix"/>
<feColorMatrix in="SourceAlpha" type="matrix" values="0 0 0 0 0 0 0 0 0 0 0 0 0 0 0 0 0 0 127 0" result="hardAlpha"/>
<feOffset dy="25.5349"/>
<feGaussianBlur stdDeviation="37.8295"/>
<feColorMatrix type="matrix" values="0 0 0 0 0 0 0 0 0 0 0 0 0 0 0 0 0 0 0.26 0"/>
<feBlend mode="normal" in2="BackgroundImageFix" result="effect1_dropShadow_4460_454"/>
<feBlend mode="normal" in="SourceGraphic" in2="effect1_dropShadow_4460_454" result="shape"/>
</filter>
</defs>
</svg>
