<svg width="16" height="16" viewBox="0 0 16 16" fill="none" xmlns="http://www.w3.org/2000/svg">
<path fill-rule="evenodd" clip-rule="evenodd" d="M6.09438 0.0330657C5.94897 0.0920344 5.83153 0.199191 5.77437 0.325034C5.71819 0.448815 5.71622 0.707003 5.71622 8C5.71622 15.3471 5.71778 15.5503 5.77556 15.6776C5.81294 15.7599 5.88425 15.841 5.96791 15.8964L6.10091 15.9844H7.99609H9.89128L10.018 15.9005C10.0944 15.85 10.1711 15.7622 10.2111 15.6797L10.2773 15.5428L10.2767 7.99793C10.276 0.653659 10.2744 0.449659 10.2166 0.322378C10.1793 0.240128 10.1079 0.159003 10.0243 0.103628L9.89134 0.0156283L8.02966 0.00940952C6.90347 0.00565952 6.13891 0.0150033 6.09438 0.0330657ZM11.8512 4.59228C11.7063 4.62684 11.5652 4.73944 11.4954 4.87637C11.4346 4.99562 11.4336 5.07934 11.4336 10.2812C11.4336 15.4784 11.4346 15.567 11.4952 15.6858C11.5691 15.8306 11.6832 15.9259 11.8363 15.9704C11.9113 15.9922 12.5639 16.0001 13.7797 15.9938L15.6101 15.9844L15.7368 15.9005C15.8131 15.85 15.8899 15.7621 15.9298 15.6797L15.9961 15.5428V10.286C15.9961 5.94159 15.9888 5.01172 15.9539 4.92819C15.8981 4.79462 15.7142 4.63641 15.5673 4.59562C15.4308 4.55775 12.0089 4.55466 11.8512 4.59228ZM0.38575 6.31444C0.267219 6.3489 0.0940312 6.51494 0.0383437 6.64744C0.00353125 6.73031 -0.00390625 7.52059 -0.00390625 11.1454V15.5428L0.062375 15.6797C0.102313 15.7621 0.179063 15.85 0.255375 15.9005L0.382094 15.9844L2.21253 15.9938C3.42825 16.0001 4.08091 15.9922 4.15594 15.9704C4.30897 15.9259 4.42306 15.8306 4.49697 15.6858C4.55744 15.5672 4.55859 15.4825 4.55859 11.1406C4.55859 6.86078 4.55666 6.71247 4.49941 6.60031C4.42631 6.45709 4.35534 6.39134 4.20691 6.32931C4.10759 6.28781 3.84481 6.28162 2.28616 6.28406C1.29303 6.28562 0.437844 6.29928 0.38575 6.31444Z" fill="#FFA000"/>
</svg>
