<svg width="16" height="16" viewBox="0 0 16 16" fill="none" xmlns="http://www.w3.org/2000/svg">
<path fill-rule="evenodd" clip-rule="evenodd" d="M4.99649 0.12897C4.41961 0.24947 3.85849 0.552126 3.45514 0.960282C2.85277 1.56984 2.55899 2.27947 2.55899 3.125C2.55899 4.27175 3.17493 5.291 4.19202 5.82731C5.92252 6.73984 8.04102 5.80184 8.56614 3.89062C8.64192 3.61478 8.67355 2.94531 8.62539 2.63575C8.36252 0.946344 6.67239 -0.221186 4.99649 0.12897ZM10.3411 5.72165C9.05977 5.86406 7.84658 6.49781 7.01961 7.45674L6.76211 7.75534L6.62149 7.73815C6.54414 7.72871 6.3543 7.70471 6.19961 7.68487C5.85371 7.64046 5.01592 7.66481 4.66836 7.72934C3.48139 7.94971 2.50627 8.45259 1.67289 9.27409C0.662864 10.2697 0.104832 11.5118 0.00980123 12.976C-0.0167613 13.3855 0.0196762 13.5403 0.187614 13.7311C0.426707 14.0027 0.165145 13.9832 3.71111 13.9929L6.84764 14.0015L7.21111 14.3715C7.41105 14.575 7.69067 14.8269 7.83252 14.9313C9.69908 16.305 12.2135 16.2636 14.0421 14.8291C14.327 14.6056 14.7282 14.1998 14.9391 13.9219C16.5705 11.772 16.269 8.74815 14.2465 6.97556C13.3403 6.18137 12.2563 5.75656 11.0121 5.70806C10.7887 5.69934 10.4867 5.70547 10.3411 5.72165ZM11.377 7.20187C12.9735 7.4144 14.2477 8.68218 14.4936 10.3029C14.5949 10.97 14.4618 11.8182 14.1611 12.4219C13.6345 13.4792 12.6258 14.2248 11.4524 14.424C11.0828 14.4867 10.4573 14.4713 10.0902 14.3903C9.05542 14.1622 8.13074 13.4503 7.64599 12.5086C7.44952 12.1269 7.36811 11.9047 7.29508 11.5507C6.87261 9.50287 8.28014 7.50381 10.3559 7.20356C10.7321 7.14915 10.9778 7.14875 11.377 7.20187ZM10.5902 8.69012C10.4258 8.76465 10.3314 8.84731 10.2367 8.99946C10.1763 9.09652 10.1665 9.16593 10.1527 9.59374L10.1371 10.0781L9.65274 10.0937C9.22492 10.1076 9.15552 10.1173 9.05845 10.1777C8.65139 10.4309 8.56127 10.9504 8.86577 11.2885C9.05289 11.4962 9.19105 11.5402 9.70742 11.5564L10.1527 11.5704L10.1534 12.0117C10.1542 12.5086 10.1865 12.6238 10.3755 12.8031C10.6535 13.0668 11.0995 13.0658 11.3812 12.8009C11.5463 12.6456 11.5976 12.4686 11.6146 11.9969L11.63 11.5701L12.071 11.5561C12.5521 11.5409 12.668 11.5064 12.8529 11.3235C13.134 11.0453 13.1262 10.5657 12.8362 10.2906C12.6581 10.1216 12.5487 10.0937 12.0643 10.0937H11.6301L11.6141 9.64843C11.5952 9.12462 11.5543 8.99368 11.3541 8.81749C11.1294 8.61968 10.8488 8.5729 10.5902 8.69012Z" fill="white"/>
</svg>
