<svg width="14" height="12" viewBox="0 0 14 12" fill="none" xmlns="http://www.w3.org/2000/svg">
<path fill-rule="evenodd" clip-rule="evenodd" d="M2.23842 0.02707C1.18632 0.226603 0.367495 0.991825 0.0859684 2.03859C0.0397366 2.21051 0.0228241 2.43646 0.0111568 3.03814L-0.00390625 3.81556H6.99609H13.9961L13.9813 3.03814C13.9659 2.23447 13.9511 2.13086 13.7886 1.68928C13.6907 1.42339 13.4304 1.02743 13.1988 0.792053C12.9672 0.556674 12.5776 0.292145 12.316 0.192669C11.7887 -0.00785418 12.1761 0.00636148 7.08015 0.000552169C4.30597 -0.00262586 2.33821 0.00813847 2.23842 0.02707ZM0.010518 7.32677C0.0219498 9.93508 0.0131406 9.79849 0.203616 10.3159C0.301493 10.5818 0.561769 10.9777 0.793366 11.2131C1.025 11.4486 1.41445 11.713 1.67668 11.8128C2.20076 12.0124 1.84527 11.9998 6.99609 11.9998C12.1469 11.9998 11.7914 12.0124 12.3155 11.8128C12.5777 11.713 12.9672 11.4486 13.1988 11.2131C13.4304 10.9777 13.6907 10.5818 13.7886 10.3159C13.979 9.79849 13.9702 9.93508 13.9817 7.32677L13.9923 4.90907H6.99609H-7.32662e-05L0.010518 7.32677ZM6.20985 7.73042C6.38627 7.86434 6.44131 7.97352 6.44131 8.18962C6.44131 8.40573 6.38627 8.51491 6.20985 8.64883C6.11934 8.71755 6.07374 8.71957 4.37947 8.72968C3.2188 8.73662 2.60108 8.72797 2.51894 8.70361C2.17719 8.60239 2.04532 8.12794 2.28011 7.84438C2.44917 7.64017 2.40923 7.64389 4.34582 7.6523C6.07623 7.65978 6.11917 7.66156 6.20985 7.73042ZM5.13391 9.37069C5.31033 9.50461 5.36537 9.61383 5.36537 9.8299C5.36537 10.046 5.31033 10.1552 5.13391 10.2891C5.04491 10.3567 4.99212 10.36 3.8415 10.3701C3.05661 10.3771 2.5994 10.368 2.51894 10.3441C2.17709 10.2423 2.04536 9.76822 2.28011 9.48465C2.4452 9.28522 2.4567 9.28379 3.80788 9.2924C4.99468 9.29992 5.04461 9.30289 5.13391 9.37069Z" fill="#FFA000"/>
</svg>
